<svg width="126" height="126" viewBox="0 0 126 126" fill="none" xmlns="http://www.w3.org/2000/svg">
<path d="M49.9615 23.3558C49.9615 26.1141 50.8153 28.6754 52.2707 30.7867C48.835 33.5226 44.5745 37.7318 40.9643 43.033C36.7269 49.2551 33.3029 57.1064 33.3029 65.9279C33.3029 79.0481 40.7963 86.4937 47.7293 90.1633L29.4016 93.4056C28.4463 93.5746 27.75 94.4048 27.75 95.375V108.5C27.75 109.605 28.6454 110.5 29.75 110.5L96.3846 110.5C96.915 110.5 97.4238 110.289 97.7988 109.914C98.1739 109.539 98.3846 109.03 98.3846 108.5V95.375C98.3846 94.4037 97.6868 93.5729 96.7301 93.4051L77.6702 90.0623C84.5452 86.3587 91.9063 78.9286 91.9063 65.9279C91.9063 54.5042 86.594 44.4273 80.2552 37.183C79.5565 36.3845 78.3559 36.2706 77.5195 36.9233C73.8176 39.8126 70.5852 44.494 68.2845 49.5103C66.289 53.8614 64.9129 58.6417 64.5787 63.0024H61.5326C61.9176 51.219 65.7251 39.7403 73.4963 31.2771C73.5456 31.2235 73.5919 31.1672 73.635 31.1085C75.2301 28.9373 76.1731 26.2537 76.1731 23.3558C76.1731 16.1176 70.3054 10.25 63.0673 10.25C55.8292 10.25 49.9615 16.1176 49.9615 23.3558Z" fill="#ECECEC" stroke="#333333" stroke-width="4" stroke-linejoin="round"/>
</svg>
