<svg width="126" height="126" viewBox="0 0 126 126" fill="none" xmlns="http://www.w3.org/2000/svg">
<path d="M48.0458 15.8929C47.69 18.4305 47.7241 21.1873 48.549 23.789C47.8312 23.9423 47.1385 24.1397 46.5051 24.3939C38.5053 27.6042 30.1237 35.7591 26.0597 52.0149C25.0513 56.0484 23.3114 57.9164 20.9113 60.4707C18.5636 62.9693 15.7433 65.9711 13.0591 71.7869C9.986 78.4452 12.6272 85.1363 17.497 88.6034C22.4522 92.1315 29.6678 92.3292 35.5392 86.4578C41.0958 80.9012 45.9151 78.6219 50.1274 76.6325L50.2712 76.5646C53.2341 75.1656 56.1506 73.7885 58.589 71.3666C58.9537 71.0043 59.305 70.622 59.6429 70.2167C58.2898 73.9571 55.5799 77.8833 50.5761 80.9076C44.3486 84.6715 40.6497 90.4774 38.5444 95.7992C36.451 101.091 35.8491 106.116 35.9866 108.61C36.0451 109.67 36.9218 110.5 37.9836 110.5H103.25C104.355 110.5 105.25 109.605 105.25 108.5C105.25 87.893 103.894 68.4322 98.7621 53.3777C93.6787 38.466 84.7643 27.5791 69.6159 24.4544L54.2578 6.54154C53.8266 6.0386 53.1743 5.78182 52.516 5.85585C51.8576 5.92988 51.2787 6.3251 50.9699 6.91124C49.7374 9.25118 48.5252 12.4746 48.0458 15.8929Z" fill="#333333" stroke="#ECECEC" stroke-width="4" stroke-linejoin="round"/>
</svg>
