<svg width="126" height="126" viewBox="0 0 126 126" fill="none" xmlns="http://www.w3.org/2000/svg">
<path d="M59.5 5C58.4198 5 57.5347 5.85781 57.501 6.93753L57.2881 13.75H49C47.8954 13.75 47 14.6454 47 15.75V26.25C47 26.5493 47.0657 26.8332 47.1836 27.0882C45.346 26.2105 43.4611 25.5131 41.5547 25.0301C34.9936 23.3679 28.1474 24.2529 22.3446 29.0886C10.6955 38.7961 11.0773 60.419 26.328 72.6974C30.4411 76.0089 34.147 79.1144 36.7987 82.4854C39.0454 85.3417 40.4638 88.3002 40.7175 91.6416L27.7679 93.393C26.7759 93.5272 26.0359 94.374 26.0359 95.375V108.5C26.0359 109.605 26.9314 110.5 28.0359 110.5H101.464C102.569 110.5 103.464 109.605 103.464 108.5V95.375C103.464 94.374 102.724 93.5272 101.732 93.393L88.7825 91.6416C89.0362 88.3002 90.4546 85.3417 92.7013 82.4854C95.353 79.1144 99.0589 76.0089 103.172 72.6974C118.423 60.419 118.804 38.7961 107.155 29.0886C101.353 24.2529 94.5064 23.3679 87.9453 25.0301C86.0389 25.5131 84.154 26.2105 82.3164 27.0882C82.4343 26.8332 82.5 26.5493 82.5 26.25V15.75C82.5 14.6454 81.6046 13.75 80.5 13.75H72.2119L71.999 6.93753C71.9653 5.85781 71.0802 5 70 5H59.5ZM49.4068 28.25H56.8159L56.6043 33.482C54.3701 31.4684 51.9465 29.6924 49.4068 28.25ZM80.0932 28.25C77.5535 29.6924 75.1299 31.4684 72.8957 33.482L72.6841 28.25H80.0932ZM47.902 48.2451C53.2037 56.9293 54.5506 66.9604 54.8178 72.8862C54.4882 72.7808 54.1238 72.6544 53.7256 72.5045C52.1453 71.9094 50.2242 71.0168 48.1905 69.8513C44.1013 67.5078 39.7173 64.1536 36.7279 60.0757C34.629 57.2125 33.2992 53.6336 32.9524 50.3982C32.5953 47.0671 33.3143 44.6235 34.6014 43.4437C35.879 42.2727 38.1378 41.8556 40.829 42.6745C43.4673 43.4772 46.1598 45.3915 47.902 48.2451ZM74.6822 72.8862C74.9494 66.9604 76.2963 56.9293 81.598 48.2451C83.3402 45.3915 86.0327 43.4772 88.671 42.6745C91.3622 41.8556 93.621 42.2727 94.8986 43.4437C96.1857 44.6235 96.9047 47.0671 96.5476 50.3982C96.2008 53.6336 94.871 57.2125 92.7721 60.0757C89.7827 64.1536 85.3987 67.5078 81.3095 69.8513C79.2758 71.0168 77.3547 71.9094 75.7744 72.5045C75.3762 72.6544 75.0118 72.7808 74.6822 72.8862Z" fill="#333333" stroke="#ECECEC" stroke-width="4" stroke-linejoin="round"/>
</svg>
