<svg width="126" height="126" viewBox="0 0 126 126" fill="none" xmlns="http://www.w3.org/2000/svg">
<path d="M28.0434 78.0429L36.6483 92.1236L29.4016 93.4056C28.4463 93.5746 27.75 94.4048 27.75 95.375V108.5C27.75 109.605 28.6454 110.5 29.75 110.5L96.3846 110.5C96.915 110.5 97.4238 110.289 97.7988 109.914C98.1739 109.539 98.3846 109.03 98.3846 108.5V95.375C98.3846 94.4037 97.6868 93.5728 96.7301 93.4051L89.3587 92.1122L97.9566 78.0429C98.0487 77.8921 98.1205 77.7297 98.17 77.56L107.462 45.7004C107.804 45.7333 108.15 45.75 108.5 45.75C114.437 45.75 119.25 40.9371 119.25 35C119.25 29.063 114.437 24.25 108.5 24.25C102.563 24.25 97.75 29.063 97.75 35C97.75 37.3141 98.4826 39.4587 99.7261 41.2124L85.2594 53.7772L82.0403 27.7366C86.3685 26.3464 89.5 22.29 89.5 17.5C89.5 11.5629 84.6871 6.75 78.75 6.75C72.8129 6.75 68 11.5629 68 17.5C68 21.3309 70.0033 24.6904 73.0153 26.5937L63 49.2951L52.9847 26.5937C55.9967 24.6904 58 21.3309 58 17.5C58 11.5629 53.1871 6.75 47.25 6.75C41.3129 6.75 36.5 11.5629 36.5 17.5C36.5 22.29 39.6315 26.3464 43.9597 27.7366L40.7406 53.7772L26.2739 41.2124C27.5174 39.4587 28.25 37.3141 28.25 35C28.25 29.063 23.4371 24.25 17.5 24.25C11.5629 24.25 6.75 29.063 6.75 35C6.75 40.9371 11.5629 45.75 17.5 45.75C17.8497 45.75 18.1958 45.7333 18.5376 45.7004L27.83 77.56C27.8795 77.7297 27.9513 77.8921 28.0434 78.0429Z" fill="#ECECEC" stroke="#333333" stroke-width="4" stroke-linejoin="round"/>
</svg>
