<svg width="126" height="126" viewBox="0 0 126 126" fill="none" xmlns="http://www.w3.org/2000/svg">
<path d="M84.1667 53.772C84.1667 53.1222 83.8509 52.5128 83.32 52.1381L76.4 47.2533C79.2175 43.8951 80.9167 39.5616 80.9167 34.8333C80.9167 24.1558 72.2608 15.5 61.5833 15.5C50.9058 15.5 42.25 24.1558 42.25 34.8333C42.25 39.7878 44.1154 44.3081 47.1779 47.7277L40.93 52.1381C40.3991 52.5128 40.0833 53.1222 40.0833 53.772V65.1667C40.0833 66.2712 40.9788 67.1667 42.0833 67.1667H48.3586C47.3877 71.1039 44.6829 75.1658 41.0679 78.9668C36.5725 83.6934 31.1367 87.5254 27.5536 89.5729L27.5536 89.5729L27.0077 89.8848C26.3846 90.2409 26 90.9036 26 91.6213V108.5C26 109.605 26.8954 110.5 28 110.5H96.25C97.3546 110.5 98.25 109.605 98.25 108.5V91.6213C98.25 90.9036 97.8654 90.2409 97.2423 89.8848L96.6965 89.5729L95.7042 91.3094L96.6964 89.5729C93.1133 87.5254 87.6775 83.6934 83.1821 78.9668C79.5671 75.1658 76.8623 71.1039 75.8914 67.1667H82.1667C83.2712 67.1667 84.1667 66.2712 84.1667 65.1667V53.772Z" fill="#ECECEC" stroke="#333333" stroke-width="4" stroke-linejoin="round"/>
</svg>
