<svg width="126" height="126" viewBox="0 0 126 126" fill="none" xmlns="http://www.w3.org/2000/svg">
<path d="M28 13.75C26.8954 13.75 26 14.6454 26 15.75V31.5C26 32.1295 26.2964 32.7223 26.8 33.1L39.8861 42.9146L36.5122 73.2791C36.4494 73.8445 36.6303 74.41 37.0097 74.8338C37.3891 75.2577 37.9311 75.5 38.5 75.5H85.75C86.3189 75.5 86.8609 75.2577 87.2403 74.8338C87.6197 74.41 87.8006 73.8445 87.7378 73.2791L84.3639 42.9146L97.45 33.1C97.9536 32.7223 98.25 32.1295 98.25 31.5V15.75C98.25 14.6454 97.3546 13.75 96.25 13.75H78.75C77.6454 13.75 76.75 14.6454 76.75 15.75V24.25H73.75V15.75C73.75 14.6454 72.8546 13.75 71.75 13.75H52.5C51.3954 13.75 50.5 14.6454 50.5 15.75V24.25H47.5V15.75C47.5 14.6454 46.6046 13.75 45.5 13.75H28ZM38.5 78.5C37.8705 78.5 37.2777 78.7964 36.9 79.3L26.4 93.3C26.1404 93.6462 26 94.0673 26 94.5V108.5C26 109.605 26.8954 110.5 28 110.5H96.25C97.3546 110.5 98.25 109.605 98.25 108.5V94.5C98.25 94.0673 98.1096 93.6462 97.85 93.3L87.35 79.3C86.9723 78.7964 86.3795 78.5 85.75 78.5H38.5Z" fill="#ECECEC" stroke="#333333" stroke-width="4" stroke-linejoin="round"/>
</svg>
